# xmcd
#
# Track frame offsets:
#	150
#	19237
#	35493
#	54170
#	72077
#	88458
#	105304
#	117966
#	133060
#	146094
#	161525
#	174092
#	185288
#	200504
#	216999
#	231679
#	246782
#	265007
#	285093
#	302760
#
# Disc length: 4257 seconds
# Revision: 3
# Processed by: cddbd v1.5.2PL0 Copyright (c) Steve Scherf et al.
# Submitted via: dBpowerAMP V12.0
#
DISCID=1c109f14
DTITLE=Various Artist - 100 Hits: The Best Country Album
DYEAR=2018
DGENRE=Country
TTITLE0=Lissie - Sleepwalking
TTITLE1=Ward Thomas - Carry You Home
TTITLE2=Wildwood Kin - Hold On
TTITLE3=Billie Marten - Milk and Honey
TTITLE4=Gretchen Wilson - Redneck Woman
TTITLE5=Lonestar - My Front Porch Looking In
TTITLE6=Jake Owen - Barefoot Blue Jean Night
TTITLE7=Billy Ray Cyrus - Crazy 'Bout You Baby
TTITLE8=Martina McBride - I Love You
TTITLE9=Patty Loveless - You Can Feel Bad
TTITLE10=Aaron Tippin - There Ain't Nothin' Wrong With The Radio
TTITLE11=Alan Jackson - Chattahoochee
TTITLE12=Mary Chapin Carpenter - Passionate Kisses
TTITLE13=Alabama - Mountain Music
TTITLE14=Pistol Annies - Hell On Heels
TTITLE15=Brooks and Dunn - Ain't Nothing 'Bout You
TTITLE16=Travis Tritt - It's A Great Day To Be Alive
TTITLE17=Brad Paisley - She's Everything
TTITLE18=Montgomery Gentry - Roll With Me
TTITLE19=Chris Young - Tomorrow
EXTD=
EXTT0=
EXTT1=
EXTT2=
EXTT3=
EXTT4=
EXTT5=
EXTT6=
EXTT7=
EXTT8=
EXTT9=
EXTT10=
EXTT11=
EXTT12=
EXTT13=
EXTT14=
EXTT15=
EXTT16=
EXTT17=
EXTT18=
EXTT19=
PLAYORDER=
